<svg id="圖層_1" data-name="圖層 1" xmlns="http://www.w3.org/2000/svg" viewBox="0 0 184.63 297.64"><defs><style>.cls-1{fill:#a55e93;}.cls-2{fill:#8a4c78;}.cls-3{fill:#c9caca;}.cls-4{fill:#363635;}</style></defs><polygon class="cls-1" points="90.22 24.72 54.56 88.65 74.23 81.68 90.22 24.72"/><polygon class="cls-2" points="73.48 82.62 134.96 86.82 90.36 24.72 73.48 82.62"/><path class="cls-3" d="M54.56,88.65s9,37.95,12.35,38.91l3.35.95L73.62,273s9.34,10.78,23.24,6.23S116,272.76,116,272.76l-1.44-145h5.75l14.62-41L74.23,81.68Z"/><path class="cls-4" d="M62.79,92.14a5,5,0,0,0-3.17,6.15c2,6.72,5.61,18.46,6.82,18.46a19,19,0,0,0,4.2-1.07,5,5,0,0,0,3.4-5L73.23,95.3a5,5,0,0,0-6.64-4.47Z"/><path class="cls-4" d="M87.86,90.66a4.26,4.26,0,0,0-4.51,5c1.37,7.28,3.79,19.3,4.86,19.51s16.42,1,23.39,1.37a4.26,4.26,0,0,0,4.33-3.14l4.19-15.34a4.26,4.26,0,0,0-3.81-5.38Z"/></svg>