<svg id="圖層_1" data-name="圖層 1" xmlns="http://www.w3.org/2000/svg" viewBox="0 0 247.75 467.71"><defs><style>.cls-1{fill:#4e4d4e;}.cls-2,.cls-6{fill:none;}.cls-2{stroke:#8ea39e;}.cls-2,.cls-3,.cls-6{stroke-miterlimit:10;}.cls-3{fill:#377a86;}.cls-3,.cls-6{stroke:#fff;}.cls-4{fill:#ccc;}.cls-5{fill:#8ea39e;}</style></defs><polygon class="cls-1" points="112.72 59.21 110.38 112.3 120.95 112.97 118.06 59.21 113.94 59.21 112.72 59.21"/><polyline class="cls-2" points="99.92 134.36 102.58 169.55 103.25 199.34"/><polygon class="cls-3" points="104.48 111.25 109.04 135.62 124.07 136.29 126.18 111.25 104.48 111.25"/><polygon class="cls-3" points="86.68 132.47 94.13 166.74 102.58 169.55 139.76 168.63 145.77 134.25 99.92 134.36 86.68 132.47"/><polygon class="cls-3" points="87.45 164.81 94.69 197.46 103.03 199.64 140.98 199.64 146.44 167.81 101.03 167.03 87.45 164.81"/><polygon class="cls-3" points="90.7 195.97 99.95 232.14 107.36 232.14 140.84 232.14 147.69 198.78 103.25 199.34 90.7 195.97"/><polygon class="cls-3" points="98.1 254.06 91.9 228.93 103.61 231.43 147.69 231.2 141.9 256.36 104.72 256.36 98.1 254.06"/><polygon class="cls-3" points="95.52 283.26 83.64 386.53 95.52 411.83 158.51 402.95 144.57 296.77 143.02 288.42 149.22 254.86 104.3 254.86 91.39 250.55 95.52 283.26"/><polygon class="cls-4" points="94.53 275.15 95.34 285.87 104.9 295.13 143.86 292.25 144.16 282.24 106.18 285.87 94.53 275.15"/><circle class="cls-5" cx="124.84" cy="288.86" r="12.11"/><polyline class="cls-6" points="99.92 134.36 101.03 167.03 103.25 199.34 103.61 231.43 104.3 254.86 106.18 285.87 104.9 295.13 95.52 411.83"/></svg>