<svg id="BG" xmlns="http://www.w3.org/2000/svg" viewBox="0 0 1433.76 809.84"><defs><style>.cls-1{fill:#b29362;}</style></defs><path class="cls-1" d="M301,666.18c-1.89,2.73-5.19,3.24-7.86,4.19-5.55,2-11.44,3.09-17.24,4.32s-9.56,3.43-12.29,7.61l8.27-2.16c.18.37.35.75.53,1.12-2.25,1.37-4.33,3.28-6.76,4-3.75,1.08-5.36,3.73-6.77,6.83-4,.1-8.08.37-12.11.25s-8-.22-11.95,1.44c-1.45-3.79-1-7.9-5.29-9.37.93-3.87.38-7.38-.49-11a24.35,24.35,0,0,1,0-10.51c1.56-7.06-1.39-10.66-8.66-9.68-.59.08-1.2,0-2.95,0l3.16-2.46a4,4,0,0,0,0-1.5c-1.32-4,1-7.43,2-11,1.28-4.74,5.35-6.72,9.79-7.39a159.27,159.27,0,0,1,16.33-1.49c5.15-.23,9-2.46,14.5-8.12-1.19-1.22-2.35-2.5-3.6-3.68-1.08-1-2.81-1.63-1.47-3.75.28-.44-.52-1.83-1.12-2.52-5.53-6.3-12.38-10.31-20.81-11-6.53-.52-7.1-.59-10.75-5.8a3.88,3.88,0,0,0-.91-.3c-1.65-.12-3.49,1.31-4.94-.62a9.2,9.2,0,0,1-1.91-7.27c1.14-6.65,5.82-9.82,11.73-11.48a49.72,49.72,0,0,1,9.55-1.58c5.69-.42,10.56-2.76,15.28-5.67,3.15-1.94,6.42-3.71,9.51-5.73a114.1,114.1,0,0,0,10.67-7.5,14,14,0,0,0,3.67-5.46c2.78-6.85,7.26-12.54,11.77-18.26,1.46-1.85,2.41-4.12,3.92-5.91a73,73,0,0,1,5.51-5.32c1.12-1.07,2.21-2.17,4-3.92-9.38.8-17.7,1.47-26,2.26-1.92.18-3.87.67-4.86,2.7,2.19,1.74-1.52,2.08-.73,3.63l14.28-3.56c.09.27.18.54.28.8-2.19.89-4.42,1.68-6.54,2.7-3,1.44-5.89,3-8.81,4.6-.7.37-1.31,1.22-2,1.25-4.76.22-8.26,3.4-11.63,5.88-4.21,3.1-9,4.89-13.26,7.69a33.42,33.42,0,0,0-4.08,3.76c-5.53-1.18-11.53-1.75-17-3.81-5-1.9-10.44-3.34-14.95-7.29l3.15-3.48c-1.61-2.36-.31-4,1-6.3,2.6-4.43,6.09-8.75,4.52-14.71-.77-2.9.36-5.64,2.8-7.78a12.14,12.14,0,0,0,4-8c.61-4.88,2.91-9.6.78-15.05l3.17.53c.81-1.72,1.79-3.2,3.81-3.71,3.74-.95,7.45-2,11.19-3,2.64-.68,5.34-1.17,7.94-2a6.33,6.33,0,0,0,2.68-1.95c3.11-3.69,6.13-7.46,9.71-11.85-2.33-.14-4.16-.39-6-.32-2.57.1-5.13.51-7.71.63a4.8,4.8,0,0,1-3.68-1.21c-1.6-1.3-4.6-1.54-6.85-1.22-5,.73-8.71-1-11.77-4.79-1.19-1.48-2.84-2.61-4-4.12a5.55,5.55,0,0,1-1.18-3.45c.35-4.73-2.73-7.8-5.22-11.09-.54-.7-2.28-.78-3.42-.67-5.72.56-10.67,3.47-15.78,5.7-8,3.47-15.83,7.23-23.47,11.37-5.76,3.14-11.1,7.06-16.8,10.74,1.18,7.74-3.1,15.64,1.32,23-5.49,6.31-12.32,10.31-19.58,13.68a15.73,15.73,0,0,1-8.93,1.29c-5.1-.66-10.26-1-15.4-1.3-1.91-.1-3.5-.37-4.69-1.94-2.22-2.92-4.86-5-8.75-5.48-1.38-.17-2.59-1.7-4.28-2.89L91.89,489c-5.1-2.4-8.26-7-11.22-11.82-3.67-6-7.39-12-11.38-17.85-6-8.82-11.56-17.88-15.07-28a10.18,10.18,0,0,1-.32-1.55c10-10.77,16.59-22.81,17.72-37.55,1.84-.11,3.2.09,4.31-.34a5.81,5.81,0,0,0,2.67-2.28c1.29-2.11,2.23-4.42,3.42-6.59a2.55,2.55,0,0,1,1.55-1.09c1.94-.36,2.83-1.53,3.69-3.27a4.23,4.23,0,0,1,5.74-2,8,8,0,0,0,9.55-2c3-3.22,6.24-4,10.34-3.84,2.5.1,5-.85,7.57-1.08,2.14-.19,4.31,0,6.76,0-.17,2.51,0,4.27,1.35,6.2,1,1.34.4,4.5-.5,6.36a32.33,32.33,0,0,0-3,14.56c0,5.58.17,11.17.4,16.76.13,3.14,1.48,4,4.44,2.84,13.31-5.31,26.68-10.5,39.86-16.11,7.54-3.21,14.71-7.26,22.14-10.74,11.81-5.54,23.68-10.93,35.55-16.34,2.93-1.33,6-2.42,8.94-3.69,1.13-.49,2.17-1.18,3.67-2-3.38-2.5-4.76-6.66-9.5-6.67-1.06,0-2.66-1.56-3.06-2.73-.95-2.81-3.23-3.93-5.43-5.23-3.87-2.27-7-5.13-8.58-9.51a9.22,9.22,0,0,0-2.15-3.19c-5-5.18-8-11.92-13-17.11-3.86-4-3.4-9.33-3.63-14.18a177.73,177.73,0,0,1,.56-20.5c.31-4.34,2.84-7.84,6-10.74,4-3.72,7.52-8.06,12.6-10.53,1-.47,2.27-1.38,2.41-2.25.65-4,4.11-5.64,6.64-7.7,3-2.45,3.49-5.07,3.1-8.43a52.23,52.23,0,0,1-.66-8.62c.19-3.54-1.15-5.52-4.56-6.25a14.37,14.37,0,0,1-2.47-1.2c2.52-.73,4.41-1.52,2.94-3.93a24,24,0,0,0,3.9-1.89,7,7,0,0,1,6.37-1.31,6.32,6.32,0,0,0,3.24-.25c3.21-1,6.4-2,9.54-3.23a10.58,10.58,0,0,0,2.43-1.89c-6.77-.35-13.2-.65-19.62-1a5.55,5.55,0,0,1-3.18-.87c-4.07-3.72-9.2-3.91-14.19-4.77-1.83-.32-3.49-1.66-5.33-2-3.63-.65-7.33-.92-11.36-1.38a9.18,9.18,0,0,0-8.53-5.44c-.32,0-.81.14-.95,0-3.74-4.19-9.91-1-13.87-4.6-.69-.62-1.7-.88-2.41-1.49-2.07-1.79-4.06-3.68-6.48-5.9l3.47-4.49-6.58-5.24c.29-1.8.6-3.62.89-5.44,0-.15-.16-.39-.1-.46a83,83,0,0,1,5.75-6.24,5.35,5.35,0,0,1,3.54-1c2.52.1,3.86-.91,4.58-3.3.58-1.95,1.11-4,3.92-4.25.88-.08,1.58-1.95,2.84-3.64,2.17-.38,5-2.37,8.35-.25.87.56,2.72-.21,4-.65a4.32,4.32,0,0,0,1.74-1.64c2.45-3.29,5.34-4.59,8.83-2.19a40.19,40.19,0,0,0,4-2c1.9-1.2,4.11-2.32,4.4-4.85.35-3.15,2.45-3.34,4.87-3.37,3.49-.05,7-.19,11.5-.32l2.2,2c3.18-.65,5.93-1.59,8.7-1.69,3.3-.12,5.31-1.57,7-4.2,2-3.08,4.29-5.94,6.9-9.51l-4.42-6.15,4-1.83-.55-1.08-5.4-1.86a29.66,29.66,0,0,1,2.68-3.82c1.86-1.92,1.52-3.91.14-5.68-3.41-4.35-3.33-9.37-3.19-14.46a10.69,10.69,0,0,0-.4-4c-1.79-4.61-1.1-8.12,2.47-12.19a28,28,0,0,0,3.57-5.08c1.84-3.41,4.44-5.37,8.4-5.46a9.69,9.69,0,0,0,8-4l3.62,4.93c5.14.36,9.6,2.83,13.43,6.42a10.48,10.48,0,0,0,6.37,3.06,21.79,21.79,0,0,1,9.47,3.32A43.38,43.38,0,0,0,306,84.6c.58.26,1.39.41,1.69.88,3.81,5.87,10.08,9.7,13.13,16.29,1.16,2.49,3.5,4.53,5.6,6.45,1.5,1.36,2.69,2.51,2.92,4.71a8.74,8.74,0,0,0,7.13,7.65c4.29.8,7.55,3.29,11.35,4.79,3.56,1.41,6.85,3.21,10.8,3.93,3.28.6,6.19,3.26,9.26,5,1.93,1.11,3.77,2.39,5.78,3.31,2.76,1.27,5,2.93,5.94,6,.74,2.28,1.68,4.5,2.38,6.79a3.22,3.22,0,0,1-.14,2.27,73.08,73.08,0,0,1-5.67,9.46,14.92,14.92,0,0,1-11.83,5.58,16.15,16.15,0,0,0-8.26,2.27c-3,1.8-6.11,1.69-9.33,1.57a23.75,23.75,0,0,0-5.65,0c-4.15.86-8.25,2-12.31,3.22-1.42.43-2.91.85-2.45,3.33.19,1-1.95,2.66-3.26,3.75-2.19,1.81-3.17,3.83-2.59,6.76.55,2.77,2,5.14,4.47,5.5,8.66,1.26,16.09,5.3,23.33,9.88,2.29,1.44,5,2.19,6.58,4.73,1.46,2.34,2,4.45,1,7.19-1.44,3.88-2.39,8-3.55,11.93-.85,2.95-3.33,4.14-5.78,5.43-1.67.88-3.26,1.91-4.85,2.93-2.14,1.38-4.27,2.32-6.69.6-5-3.58-12.89-.9-16.39,2.56-3.06,3-4.85,7.3-9.07,9.18a1.45,1.45,0,0,0-.5,1.23c.34,2.91-2,3.35-3.83,4.24-4.08,2-8.15,3.8-11.51,7.13a32.1,32.1,0,0,1-8.38,5.48c-2.87,1.43-4.74,3.25-4.91,6.8,1.25,0,2.58.31,3.7-.05q10.53-3.4,21-7.07c6.67-2.33,13.24-5,20-7.11,2.7-.86,5.7-.83,8.58-1,4.34-.31,8.69-.64,13-.66a37.42,37.42,0,0,1,9,.84c5.93,1.45,11.77,3.27,17.59,5.11a6.08,6.08,0,0,1,4.42,4.65c.77,3,2.54,5.56,4.57,8.12,4.05,5.11,8.23,10.49,8.06,17.6a7,7,0,0,1-1.43,4.33c-3,3.15-6.28,6-9.46,8.95-.11.11-.25.27-.38.28-5.14.26-8.68,4-13,6-1.28.59-2.51,1.28-3.76,1.94-.28.15-.49.46-.78.58-7,2.7-13.37,6.7-20.67,8.82a87.43,87.43,0,0,0-17.83,6.9c-4.5,2.46-9.56,3.86-14.26,6-8.37,3.78-16.73,7.6-24.93,11.74-2.55,1.29-4.57,3.65-7.45,6a17.59,17.59,0,0,0,3.09,0q17.74-3.74,35.47-7.56c16.07-3.46,32.08-7.23,48.22-10.29,10.14-1.93,20.47-2.89,30.73-4.1a18.94,18.94,0,0,1,6.23.68c7.84,1.83,15.71,3.55,23.44,5.79A21.81,21.81,0,0,1,435.66,348a12.89,12.89,0,0,0,2.54,2.2c1.94,1.56,3.62,2.92,2.38,6.06-.5,1.26,1,3.31,1.62,5-.68,3.71-1.88,7.61-2,11.55-.3,8.07-3.86,13.69-11.45,17.26-.66-2.94-2.76-3.17-5.38-3.1-3.2.07-6.43-.2-8.86-3-.7-.8-2.62-1.48-3.43-1.08-2.47,1.21-3.94-.31-5.47-1.44-2.88,1-5.72,1.57-6.77,4.91-.28.87-1.68,1.44-2.63,2-2.47,1.53-4.93,3.06-7.47,4.46-.6.33-1.49.13-3.22.24l9.74-11.49-4.47-1.8,3-11.82a26.39,26.39,0,0,0-3.92-1.24,88.75,88.75,0,0,0-32.24,1c-10.4,2.23-20.94,3.81-31.4,5.76-7.66,1.42-14.64,4.76-21.69,7.91l-7.26,3.25,2.34,3.48a28.09,28.09,0,0,1-3.13.79c-.71.09-2-.37-2.1-.13-1.55,3.09-5.39,2.88-7.48,5.55-1.72,2.2-5,3.15-7.67,4.67.81,2.26,2,2.95,4.36,2.5,8.22-1.62,16.49-3,24.75-4.48,6-1.06,12.11-1.72,18-3.28,3-.8,5.36,0,7.85,1,3.3,1.27,6.52,2.74,9.74,4.21,1.83.84,4.09,1.32,3.83,4.21,0,.52.72,1.26,1.28,1.65,1.45,1,3,1.9,4.49,2.85,3.34,2.12,6.66,4.26,10.29,6.58-2.89,3.54-8.35,4.6-6.78,10.55l7.25,1.69c-1.32,2.11-3.28,1.25-4.92,1.51a49,49,0,0,0-5.13.85,4.41,4.41,0,0,0-3.67,4.48c0,1.13-.8,2.22-1.28,3.47l4.49,1,.06.8a26.32,26.32,0,0,1-3.3.25c-9.13-.42-17.48,2.46-25.44,6.46-2.5,1.25-4.54,3.6-6.53,5.7a103.91,103.91,0,0,1-29.39,21.75,9.11,9.11,0,0,1-4.13,1,17.86,17.86,0,0,0-8.85,1.85c-2.84,1.4-6,2.07-9,3.22-1.73.67-3.34,1.66-5,2.5l.08,1.15a24.12,24.12,0,0,0,4.2,1.22c3.2.31,6.43.32,9.64.55,10.08.73,20-.38,29.9-2.24,5.41-1,6.07-1.75,5.85-7.5s1-10.66,4.9-14.87a4.83,4.83,0,0,0,.75-1.23c2-4.42,2.63-4.58,7.15-3.79,5.11.91,9,3.87,12.12,7.53,3.69,4.29,8.59,6.67,13.08,9.74,2,1.36,3.93,2.79,5.8,4.3q8.27,6.69,16.44,13.46c2.47,2,5.23,3.75,6.09,7.26.27,1.08,2,1.72,2.49,2.83a77.29,77.29,0,0,1,3.76,10.71c.47,1.86-2,4.42-4.06,3.82-3.6-1.07-5.73,1.21-8.37,2.46-.57.26-1.13.55-1.54.75l-6.56-4.15c-1.94,1.16-2.22,2.43-1.13,4.16,1.49,2.38,2.87,4.83,4.41,7.45-2.22,1.3-3.87.48-5.55-.51q-4.29-2.52-8.65-4.93a45.37,45.37,0,0,1-11.91-10c-.58-.66-1.38-1.59-2.08-1.59-6.22,0-12.52,0-17.92,3.76-1.13.79-1.76,2.32-3.19,4.3l7.06-.43.17,1c-1.1.24-2.21.47-3.31.72-1.84.42-3.3,1.23-3.6,3.36-.78,5.55-1.07,11.18-3.61,16.42-.65,1.34.16,3.4.32,5.35,6.3.75,11.43,3.62,16.07,7.45,4.43,3.66,8.82,7.36,12.92,10.78-.21,5.39-4.37,6.05-7.45,7.73a12.1,12.1,0,0,1-4.44,1.42,7.63,7.63,0,0,0-6.34,4.66,18.16,18.16,0,0,1-8.82,8.65,5.06,5.06,0,0,0-3.08,5c0,4.59.45,9.18.7,13.78a33,33,0,0,1,.07,3.85c-.3,5.29-.66,10.58-1.06,16.81,4.54-2,8.41-3.47,12-5.4,10.53-5.61,20.87-11.58,31.46-17.08,6.71-3.49,10.76-8.49,11.38-16.13a14.06,14.06,0,0,1,.8-2.74c5.28.73,6.62,2.17,5.18,7.11-1.28,4.38-1,8.9-.81,13.09.23,4.83,1.46,10.1,4.93,14.21,1.24,1.47,2.37,3,3.64,4.65,1.14.11,2.42.18,3.68.39,3.08.51,4.66,3,2.93,5.42-2.77,3.88-3.46,9-7.6,12.1-1.09.82-1.11,3.07-1.71,5l-4-.58c.46,1.09.76,1.81,1.24,2.93l-4.12,1.67,3.53,1-5.62,4.08-4.62-.41.81,2.38a17.6,17.6,0,0,1-2.3,1.62c-3.81,1.95-8.39,2-11.83,5.1a5.39,5.39,0,0,1-4.61.59,7.44,7.44,0,0,0-6.3.8c-5.72,3.52-12.39,3.37-18.49,5.1-6.38,1.8-13.09,2.92-19.6,4.49-4.5,1.09-8.84,2.82-13.3,4.13a56.38,56.38,0,0,1-6.07,1c1.14-1.49,1.47-2.39,2-2.59q6.8-2.38,13.67-4.53c3.92-1.21,7.88-3.11,11.85-3.16,5.27-.06,9.23-4.76,14.67-3.38.66.16,1.54-.39,2.27-.7,4.73-2,4.79-2,9.61-.58,2.9-2.74,2.95-3,.94-5.48,1.68-.69,3.3-1.35,4.92-2,1.12-.45,2.25-.88,3.38-1.32-1.77-.75-3.31-1-3.24,1.48-2.81-1-5.38.11-8,.93l-6.22,2,2.78,1.82c-4.49,1.67-8.51,2.43-12.93,1.65l7-2.06-.23-1-10,2.2.88,2.48c-5.43,2.07-10.75,4-16.62,3.56.26-.63.5-1.25.84-2.1l-4.94,1.47Zm25-379a21.76,21.76,0,0,0-3.35.41c-6.18,1.77-12.43,3.34-18.47,5.5-5.57,2-11.24,4.1-16.26,7.13s-11.06,4.59-13.42,10.77a.76.76,0,0,1-.36.32c-2.5,1.22-2.56,3.68-3.54,6.47,2.62-.54,4.76-.64,6.63-1.41,5.35-2.21,10.59-4.69,15.88-7,6.66-3,13-7.23,21-4.67a5,5,0,0,0,5.66-1.84C323,298.23,326.11,293.55,326.05,287.2ZM254.76,592.87l0,1.45c1.81,1,3.55,2.09,5.43,2.87a30.75,30.75,0,0,0,9.89,2.72c3.76.25,3.75.91,4.45-2.6a25.92,25.92,0,0,0,.26-3.24c-5.5-.75-10.69-1.55-15.9-2.09C257.58,591.84,256.15,592.55,254.76,592.87Zm46.42-220.35,0,1c1.93.23,4.74,1.38,5.64.53,2.53-2.42,5.74-2.75,8.64-3.91a30.63,30.63,0,0,1,9.3-2.45,29.43,29.43,0,0,0,9.81-2.55A101.18,101.18,0,0,0,301.18,372.52ZM271.54,626.69c-2.35,2.31-4.3,3.8-5.35,6.85l9.69-1.83Zm33.78,37.17c3.07-.22,6.13-.22,8.88-2C310,658.49,308,662.63,305.32,663.86ZM259.45,279.25l.18,1.29c1.56-.11,3.3.57,5.34-2.36Zm24.66,230.31,0,.71h4.47l0-.71Zm12.46-129.21-.54-.77-2.44,1.49.42.71Zm51.52,276.23a11.46,11.46,0,0,0-2.79-.18,5.69,5.69,0,0,0-1.5,1l.3.44Z"/><path class="cls-1" d="M743.8,590.8l1.79-3.86,6.21,5.91.53-.26c-.57-1-1.17-2.06-1.7-3.12-1.2-2.41-4.43-4-3.13-7.48.12-.31-1-1.57-1.38-1.48-2.25.55-2.62-1.25-3.43-2.5-1.59-2.47-3.33-4.87-4.68-7.47a18.71,18.71,0,0,1-1.57-5.44c-.68-4.06-1.29-8.14-1.7-12.23a59.2,59.2,0,0,1-.14-7.88c.16-4.7.28-9.41.78-14.07a20.77,20.77,0,0,1,2.73-8.09c.22,4.12.43,8.25.63,12.13,2.26.77,3.26.28,3.44-1.44a13.06,13.06,0,0,0,.23-4.29c-1.51-6.3.93-12.25,1.47-18.35.27-3,.64-3,4.27-4.3,0,2.34-.06,4.59,0,6.84s.42,4.71.4,7.06c0,4.19.32,8.38,2.25,12.07,3.82,7.31,7.74,14.54,15.66,18.57,5.61,2.86,10.75,6.68,16.42,9.42a83.81,83.81,0,0,0,14.54,5.1,113.06,113.06,0,0,0,15.12,3c10.23,1.33,20.37.78,29.73-4,2.9-1.49,5.26-4.12,7.7-6.4a59.66,59.66,0,0,0,5.32-5.8c2.49-3.05,4.83-6.22,7.65-9.89h-2.63a14,14,0,0,1,.33-2.53c1.61-4.72,3.25-9.44,5-14.12.61-1.67.72-3.7,2.94-4.42.48-.15.8-1.06,1-1.69.9-2.43,1.19-5.1,3.3-7a2.7,2.7,0,0,0,.59-2.43c-1.16-2.6.21-4.88.57-7.29.85-5.66,1.74-11.32,2.35-17,.8-7.41-2.26-12.58-9.43-15.12a24,24,0,0,1-2.48-1.38l4.44.42c-.15-.45-.14-.75-.29-.86-4-3.09-8.35-4.91-13.5-4.54-3.67.26-7.34.43-11,.66a4.37,4.37,0,0,0-1.31.18c-2.19.84-3.62,3.12-6.43,2.78.05.33.1.66.16,1a12.86,12.86,0,0,0,2.52.31c6.61-.48,13.2-1.05,19.81-1.51a7,7,0,0,1,4.31,1.09c-.88,0-1.76.06-2.63,0-10.08-.79-19.73,1.23-29,5-5.42,2.24-10.47,5.39-15.68,8.14-2.47,1.31-5,2.57-7.38,4a15.74,15.74,0,0,0-2.57,2.21c-2.49,2.34-5,2.32-7.58,0a8.4,8.4,0,0,0-2.15-1.52c-5.36-2.37-6.06-6.94-5.74-12a4.79,4.79,0,0,1,.33-1.73c1.28-2.75.39-5.14-1.09-7.47-.39-.61-.72-1.26-.89-1.57.39-2,.67-3.73,1-5.42.62-2.83.4-6,2.87-8.15-.06-6.07,5.18-6.36,9-8,2.46-1.06,4.39-2.33,5.38-5-3.87-2.32-7.32-5.45-12.38-5.18-1.08.06-2.36-.95-3.31-1.76a33.67,33.67,0,0,1-3.22-3.73c1.53-.65,2.88-1.62,4.31-1.75,3.31-.3,5.75-2.2,8.27-3.94,7.52-5.19,15-10.48,22.5-15.67,2.19-1.51,4.31-2.93,5.71-5.39a7.6,7.6,0,0,1,5.78-3.69c2.32-.33,4.63-.75,7.25-1.19.47-2.41.92-4.8,1.56-8.12-3.25,1.19-5.78,2.11-8.29,3.06-.41.15-.76.52-1.18.61-6.12,1.35-10.58,6-16.28,8.18-5.93,2.3-11.8,4.7-18.35,3.33a10.34,10.34,0,0,1-4.07-1.43c-4.42-3.36-8.7-6.9-13-10.42a6.84,6.84,0,0,1-2.6-7c.25-1.27.33-2.58.56-4.42a76.38,76.38,0,0,1,9.39,1,13,13,0,0,0,9-1c6.18-3.11,12.4-6.15,18.44-9.52a115.56,115.56,0,0,1,26.21-10.53,43.74,43.74,0,0,1,21.89-.56A22.61,22.61,0,0,1,877,365.94c1.53,1.78,1.67,4.88,2.13,7.43a6,6,0,0,1-2.63,6.53c-1.28.88-2.09,2.42-3.12,3.66-5.43-.93-6.07-.41-8.38,4.5-1.31,2.77-2.26,5.83-5.09,7.79-1.14.78-1.18,3.14-2.31,3.91-3.77,2.56-3.78,7-6.18,10.57.84.55,1.54,1,2.49,1.65-1.78,1.51.59,3.44,0,4.41-.88,1.41-1.07,3.07-1.9,4.25-1,1.47-3,2.28-4.53,3.42s-2.63,2.42-4.18,3.09-3.56.75-6.14,1.23c-2.34,4-7.12,6.34-11.89,8.66a21,21,0,0,0-10.18,9.87c1.53.16,2.66.36,3.8.4,5.59.18,11.18.26,16.77.5,5,.21,10,.48,15,.91,9.61.83,18.95,2.89,27.29,7.92,3.22,1.94,6,4.69,8.82,7.19s5.36,5.06,8.13,7.49c9.84,8.62,15.66,19.68,19.52,31.94a19.3,19.3,0,0,1-.08,10.94c-2,7.51-3.86,15.14-6.77,22.32-2.67,6.56-4.78,13.39-8.8,19.48-2.13,3.22-2.69,7.65-3.3,11.63-.33,2.12-1,3.65-2.59,4.76-1.35.92-1.38,2.09-1.78,3.53a11.47,11.47,0,0,1-5.36,7.06,3,3,0,0,0-2,2.71c-.24,1.81-2.79,3.5-4.62,4.86a65.41,65.41,0,0,0-7.83,6.63c-3.79,3.84-7.26,8.57-13.09,10-1.39.35-2.55,1.21-4.13.42a3.39,3.39,0,0,0-2.46.35,74.35,74.35,0,0,1-22.17,6.65c-4.17.49-8.29,1.58-12.46,1.86-6.83.45-13.65,1.42-20.53-.37-3.9-1-8.15-.6-12.1-1.49a75.57,75.57,0,0,1-25.8-11.15c-4.72-3.18-9-7-13.41-10.63A6.43,6.43,0,0,1,743.8,590.8Zm11.71-1.4c0,.8-.09,1,0,1a5.72,5.72,0,0,0,.77,1c8.64,8,19.29,11.47,30.64,13,5.47.76,11.07.65,16.54,1.42,8.83,1.24,17.15-1.19,25.6-2.91a10.66,10.66,0,0,0,2.39-1.14c-3.5-.1-7-.08-10.06,1-3.74,1.29-6.75-1.47-10.2-1-.58.09-1.18.12-1.76.17-3.66.29-7.33.88-11,.81-8.17-.15-15.76-3.62-23.89-4.49-3.67-.39-7.06-3.34-10.6-5.07C761.21,592,758.46,590.77,755.51,589.4Zm109-128.77c-7-4.83-27.34-6.39-32.77-2.18C843,458.7,853.76,458.53,864.53,460.63Zm-48.39,122.5a28.82,28.82,0,0,0-16-2.77C805,584.3,810.59,583.69,816.14,583.13ZM809,588.3l-20.23-2.91-.33.81c1.34.62,2.63,1.64,4,1.79,5.14.55,10.32.81,15.48,1.14C808.18,589.15,808.41,588.8,809,588.3Zm-66.66-47.41-1.11,0c-1.42,1.88-.08,3.11,1.65,5.14C742.67,543.79,742.52,542.34,742.37,540.89Z"/><path class="cls-1" d="M706.68,207.53c3.55,1.28,6.77,2.55,10.07,3.59,3,1,6.18,1.63,8.73,3.8,1,.87,1.88,1.46,2,3.11a14.36,14.36,0,0,0,1.8,5.36c1.43,2.8,1.62,5.25-.8,7.65a29.28,29.28,0,0,0-2.77,3.87c.94.55,1.93,1.11,2.89,1.71,2,1.25,4,2.5,5.91,3.8,1.35.9,2.51,2.19,4,2.77,3.93,1.58,6.32,4.55,8.47,8a51.6,51.6,0,0,0,5.49,6.88c2.65,2.93,3.53,6,1.6,9.67a11.2,11.2,0,0,0-.91,4.26c-.26,3.25-1.57,5.47-4.88,6.5a57.83,57.83,0,0,0-6.36,2.82c-1.17-.79-2.44-2-4-2.5-.66-.2-1.81,1.2-3.12,2.14-1.64-1.31-3.4-2.87-5.32-4.19a2.81,2.81,0,0,0-3.63.25c-4.16,3.24-8.41,6.37-12.7,9.43a39,39,0,0,1-4.58,2.47L704.5,295l-1.64-.39c-.3,2-.47,4.15-3.28,4.32-.47,0-1.11.81-1.3,1.36-.95,2.67-3,4.26-5.26,5.67-4.48,2.75-9.08,5.36-13.33,8.44a63.72,63.72,0,0,0-8.39,7.71c-3.19,3.32-7.31,3.32-11.36,3.61-.62,0-1.62-.84-1.9-1.51a37.78,37.78,0,0,1-2.61-7.46,47.59,47.59,0,0,1-1.18-12.66c.26-3.51-1-7.3-2.24-10.7-.85-2.29-.11-3.64,1.15-5,6-6.46,12.61-12.28,17.61-19.59,1.48-2.16,3-4.31,4.67-6.76l-3.73-.6c1.06-.95,1.82-1.63,2.94-2.65-1.78-.71-3.09-1.23-4.42,0-1.53,1.36-3.23,1.1-5,.7a10.58,10.58,0,0,0-3.05-.34c-3.43.3-4.94-2.32-6.56-4.46a13.78,13.78,0,0,1-2-5c-.4-1.67-.89-3.56-.49-5.14a51.57,51.57,0,0,0,1-17.89c-.19-1.91-.24-3.83-.43-5.73-.78-7.6,3.61-12.26,9.66-15.14,3.28-1.56,4.88-3.92,6.56-6.62a23.76,23.76,0,0,1,2-3.34c8.3-9.21,16.37-18.65,25.08-27.46,5.89-5.95,12.67-11,19.09-16.43,2.15-1.8,4.45-3.42,6.66-5.14a4.39,4.39,0,0,1,4.88-.59,13.67,13.67,0,0,1,8.81,10.12,72.45,72.45,0,0,1,1.94,9.44c.5,5-2,9.16-2.54,13.81a27.12,27.12,0,0,0-.63,3.48c.14,5.29-3.17,8.21-7.43,9.81-3.85,1.45-6.84,3.95-10.08,6.21-2.77,1.93-5.54,3.87-8.25,5.89A33,33,0,0,0,706.68,207.53Zm-12.12,61.84.53.79c.89-.38,1.82-.69,2.68-1.14,6.4-3.32,12.82-6.59,19.16-10s7.71-8,4.41-15.4C710.44,250.3,702,259.34,694.56,269.37Z"/><path class="cls-1" d="M810.54,212c2.62-.2,4.64-.39,6.65-.52,6.44-.4,12.15,1.63,17.58,5a25.45,25.45,0,0,0,6.5,2.56c3.29.9,6.18,2.07,7,5.84,1.12,5.16,0,8.54-3.81,11.09-.47.32-1.27.74-1.26,1.11,0,4.06-4,5.14-5.82,7.9-1.06,1.65-3.92,2.14-6.17,3.26,2.59,1.73,5.07-1,7.48-.18s4.85,2.26,7.39,2.77a11.78,11.78,0,0,1,6.95,3.66c-.54,2.14-.67,4.5-1.74,6.29a9.07,9.07,0,0,1-4.4,3.29c-5,1.94-9.71,4.12-13,8.55a3.5,3.5,0,0,1-1.4,1,19.34,19.34,0,0,0-5.52,4.08,22.29,22.29,0,0,1-9,5c-4.22,1.22-7.57,3.61-11.13,5.87s-6.76,5.1-11,6.26c-7.59,2.07-13.26-2-13.38-9.85,0-2.65-.23-5.29-.26-7.94a13.35,13.35,0,0,1,3-9,18.09,18.09,0,0,0,3.43-7.9c1-5.77,4.74-7.22,9.77-7.47,2.91-.15,2.9-.31,5.28-3.94-1.11-1-2.27-2-3.45-3-4.36-3.7-9.13-7-13-11.18-3.61-3.93-7-8.29-8.09-13.91-.28-1.41-1.67-2.67-2.74-3.82a5.86,5.86,0,0,0-2.35-1.18c-2.61-.93-5.53-1.36-7.78-2.83-2.09-1.36-3.33-4-5.22-5.72A13.41,13.41,0,0,0,756.8,205c-3.21-1.25-5.86-2.86-7.76-6.08-1.26-2.12-3.93-3.43-6-5-1.52-1.19-3.25-2.24-2.51-4.63a5.11,5.11,0,0,1,4.44-3.76c9-1.49,17.44-4.84,25.54-9,4.16-2.16,8.43-4.1,12.74-5.91a4.4,4.4,0,0,0,3.07-4.78c-.18-2.65-.33-5.31-.76-7.92-.67-4.1-1.54-8.16-2.4-12.22a3.67,3.67,0,0,0-1-1.87c-4.15-3.81-5.74-9.12-8.56-14.15,8.11-3.25,16.28-5.21,24.44-2,4.54,1.81,8.48,5.22,12.53,8.13a112.7,112.7,0,0,1,8.83,7.2c2.29,2,4.57,4,6.09,6.86,1.92,3.65,5.94,4.17,9.64,4.33,2.57.12,4.62.15,6.58,2.46,1.36,1.62,4,2.32,6.28,3,3.8,1.11,6.55,3.13,8,6.94.6,1.63,1.68,3.08,2.41,4.67.91,2-.12,5.8-1.91,7.18-4,3.06-8.06,6-12,9.14-4.75,3.83-9.31,7.87-14,11.72-1.93,1.58-4.07,2.9-6.12,4.32a31.16,31.16,0,0,0-3.59,2.46c-1.8,1.65-3.57,3.07-6.25,2.61C812.49,208.21,811.77,209.77,810.54,212Zm-2.19.42c-2.74-.88-2.74-.88-4.87.45Z"/><path class="cls-1" d="M534.68,736.77c.56-4.59,1.13-9.19,1.68-13.78,1.36-11.4,1.95-22.84.62-34.26-1.73-14.92-3.57-29.84-5.85-44.69-2.15-14-.9-27.62,2.4-41.19,1.42-5.84,3.26-11.58,4.9-17.36a1.6,1.6,0,0,0,.13-.87c-1.19-3.55,1.57-5.81,2.71-8.63,1.66-4,3-8.23,4.54-12.35a23,23,0,0,1,1.29-3.26q2.52-4.56,5.22-9c.73-1.22,1.69-2.31,2.54-3.47a8.46,8.46,0,0,0,1.22-1.81c3.78-10,8.9-17.29,15.78-26.11,5.87-7.52,13-13.64,19.73-20.22,3.46-3.39,6.73-7.35,11.38-9.46.46-.21.7-.89,1-1.37,5.21-7.53,9.24-15.7,13.09-24,4.41-9.52,9.08-18.92,13.7-28.35a11.91,11.91,0,0,1,1.87-2.36c.48-.55,1.49-1.1,1.45-1.58-.31-3.65,2.91-5.69,3.81-8.76s2.75-6.07,2.8-9.55c0-.84,1-1.65,2-2.36.14,8.4-3,16.31-2.89,24.87l3.84-7.79a3.33,3.33,0,0,1,1.17,3.29c-.23,1.41-.43,2.82-.65,4.23-.78,4.92-1.55,9.84-2.35,14.75a29.89,29.89,0,0,0-.65,3.45c-.4,9-3.53,17.39-6.16,25.9-1.09,3.51-1.21,7.33-1.79,11-.13.83-.43,1.62-.55,2.45-.3,2.15-2.47,3.25-2.72,5.75-.17,1.67-1.81,3.53-2.32,5.62-.37,1.5-1.63,2.76-2.38,4.19A117.4,117.4,0,0,1,612.92,529a10,10,0,0,0-1.71,3.58c-2,7.28-5.77,13.81-8.94,20.56-2.61,5.56-6.36,10.59-9.56,15.88-1.59,2.63-3,5.4-4.66,8-2,3.08-4.25,6-6.41,9-.69,1-1.75,1.72-2.18,2.76-2,4.71-5.69,8.18-8.55,12.23-3.38,4.78-5.75,10-8.31,15.24-1.1,2.24-1.78,4.7-3.06,6.81a5.72,5.72,0,0,0-1,4.1,3.58,3.58,0,0,1-.54,2.49c-3.1,3.87-2.94,8.82-4.55,13.16-3.25,8.78-2.54,17.94-3,27-.13,2.39-2.5,4.44-.89,7-1.76,4.3-1,8.85-1.41,13.29A65.11,65.11,0,0,1,546,701.43c-.58,2.1-1.48,3.94-.42,6.14a2.6,2.6,0,0,1-.47,2.06c-3.13,4.58-3.88,9.86-4.94,15.13-.77,3.8-2.4,7.43-3.68,11.13a5.21,5.21,0,0,1-.88,1.2Z"/><path class="cls-1" d="M904.91,208.79c3.2,0,5-.82,6.41-3.8,1-2,3.77-3.59,6.1-4.46,4.13-1.53,8.43-2.26,12.88-.4,2.12.89,4.61.92,7,1.19,6,.71,9,4,9,10.19a19.84,19.84,0,0,1-.36,2.71c16.27,3.31,31,9.8,43.49,21.71-3.11,2.45-6,4-7.92,6.4-2.42,2.95-5,5.16-8.84,5.5-3.23,3.76-5.62.87-8.93-.38-6.28-2.36-9.18-6.89-11.28-13.51-1.25,2.44-2,4.12-2.94,5.65a38.26,38.26,0,0,1-3.2,4.21,37.28,37.28,0,0,1-4.46,4.91q-9.72,8-19.67,15.72Q915,270,907.58,275.25c-2.47,1.76-4.89,3.84-7.94,3.83-1.66-4.08-3.46-7.87-4.75-11.82s-2-7.85-3-12.32c6-5.24,6.15-13.59,9.7-21-2.27.21-3.38,1.35-4.58,2.62-3.52,3.73-8.09,5.74-12.85,7.35a3.62,3.62,0,0,1-1.55-.15c-.31-.39-.62-.6-.65-.84-.68-5-3.2-8.87-6.65-12.58-3-3.2-4.12-7.71-4.85-12.06-.18-1.05.72-2.33,1.25-3.45,1.38-2.89,3-5.67,4.2-8.64,1.67-4.25,2.82-8.7,4.54-12.92.87-2.14,2.49-4,3.78-5.93s2.75-4.14,4.09-6.24c.31-.49.75-1.19.61-1.63-1.68-5.21,1.78-9.08,3.83-13,3.9-7.56,7.7-15.21,13.11-21.93,1.37-1.7,1.79-4.29,2.29-6.55.8-3.56,2.42-4.62,6-3.56a52.12,52.12,0,0,0,5.5,1.4,6.94,6.94,0,0,1,5.23,3.7c2,4.2,5.86,5.84,9.64,7.8a22.44,22.44,0,0,1,5.8,4.47c2.11,2.22,1.71,9.81-.69,11.39-4.43,2.9-7,7.54-10.77,11-2.46,2.25-4.13,5.31-7.75,6.29-1.22.33-3.17,1.6-1.29,3.61-1,1.57-1.66,3.46-3,4.63A37.5,37.5,0,0,0,904.91,208.79Zm34.42,11c-.52.49-1.39,1.23-2.15,2.06-3,3.31-5.39,7.37-10.14,8.77-.7.21-1.24,1.19-1.73,1.9-.91,1.31-1.71,2.71-2.59,4-1.48,2.26-3,4.5-4.51,6.75a19.63,19.63,0,0,0,10.48-5.48c1.57-1.55,3.26-3,4.88-4.48a9.53,9.53,0,0,1,9.36-2.54,17.46,17.46,0,0,0,2.87.26Z"/><path class="cls-1" d="M1240.11,296.17c-4.89.24-4.89.24-7.39,2,21.8-1.94,42.28-8.23,63.55-8.86l.07-1.05L1284.71,286c1.39-.88,2.5-1.67,3.68-2.33,2-1.1,3.33-2.51,2.88-5-.13-.73,0-1.84-.4-2.1-.58-.37-1.95-.47-2.3-.08-1.34,1.54-2.84,1.13-4.46.89a7.45,7.45,0,0,0-3,.14,6.43,6.43,0,0,1-5.47-.89,4,4,0,0,0-2.34-.84c-4.5.67-9,1.28-13.1,3.62a97.34,97.34,0,0,1-9.44,4.81c-1.1.48-2.6.08-4.64.08,5.06-7.68,12.88-11.16,18.47-17.87l-11.1-10.81c2.21-3.53-.42-6.89-.69-11a37.78,37.78,0,0,1,5.87,1.56,35.37,35.37,0,0,0,17,3.22c4.73-.27,10.33-.83,14.63,3.12a4,4,0,0,0,3.69.19c.88-.47,1.48-2,1.63-3.19.67-5.12,1.12-10.25,1.7-15.76-4.53-2.58-5.83,2.4-8.89,4.53-.18-1.18-.3-1.95-.41-2.69h-2.69l2-3.1c-3.62.23-6.73-4.32-10.14.45a48.6,48.6,0,0,0-4.25-5,11.72,11.72,0,0,1-3.4-4.92,7.55,7.55,0,0,0-2.32-3.14c-3.49-2.78-4.45-6.57-4.19-10.68a18.8,18.8,0,0,0-.78-7.81c-.36-1,.15-2.33.32-4.07l11.16,4.13c.42.15,1.08.26,1.18.55,1.53,4.46,5.52,3.32,8.65,3.57a40.1,40.1,0,0,1,15,3.68c2.58-2.36,3-5.48,3.71-8.41,1.13-4.54,1.62-9.29,3.21-13.65,1.76-4.81,1.85-9.11-1.05-13.5-7.33-1.49-14.57.37-21.84,1.34-7.1.95-14.4.86-21,4.57l-.75-1a24.83,24.83,0,0,1,2.12-4.4c6.07-8.11,14.29-13,23.92-15.81,4.38-1.26,8.85-2.25,13.16-3.7,4.89-1.65,9.7-.3,14.45.22a113.93,113.93,0,0,1,16.35,3.42,8.56,8.56,0,0,1,6.13,5.79,331.38,331.38,0,0,1,10.6,35.85,36.27,36.27,0,0,1-2,22.64c-1.46,3.61-1.85,7.68-2.57,11.58-.67,3.6-1,7.27-1.75,10.86a26.08,26.08,0,0,1-2.1,5.77c-.73,1.55-1.91,2.63-.5,4.72.57.86.33,3.68-1.65,5a14.47,14.47,0,0,0-2.39,2.28c0,2.05,0,3.51,0,5,0,.72-.28,1.44-.26,2.15.08,2.11.53,4.21-.83,6.16a3.26,3.26,0,0,0-.34,2.11c.19,1.65,1.2,3.18-.36,4.91-.5.55.39,2.37.7,3.82,4.7-.39,9.14-.53,13.49-1.23,1.75-.29,3.45-1.63,4.89-2.83,3.57-3,7.66-3,11.94-2.66a55.84,55.84,0,0,0,6.59.24c4-.13,7.79-.09,11.6,1.77,3.6,1.76,7.66,2.56,11.49,3.86,4.73,1.62,9.47,3.24,14.12,5.07,1.19.47,2,1.78,3.74,3.34l-6.35.41a23.64,23.64,0,0,0,1.52,3c.4.59,1.24.87,1.62,1.45a2.82,2.82,0,0,1,.51,2.06c-1.17,3.34,2.66,7.35-1.54,10.33a8.63,8.63,0,0,0-3.45,5.5,4.55,4.55,0,0,1-1.87,2.24,61.24,61.24,0,0,1-5.86,3.88c-5.37,3.09-10.52,6.4-14.65,11.14-1.19,1.38-2.82,2.7-5.35,1.6l5.63-7-.65-.71a15.29,15.29,0,0,0-1.74,1.32c-3.48,3.52-6.91,7.08-10.41,10.58a10.53,10.53,0,0,1-2.21,1.25c-.36-3.16,2.77-4.19,3.16-6.6-4.27-2-2.6,4.44-6,4,.15-1.26.31-2.57.49-4.1l-4.3,2V331.6l-2.47-.73c.33-1.7.65-3.25.92-4.82s1.56-3.19-.75-4.49c-.43-.24-.09-1.91-.07-2.93,0-3.35.18-6.7.09-10a2.24,2.24,0,0,0-2.63-2.35,15.51,15.51,0,0,1-2.27-.15l.5-2.74c-1.94,0-3.81.09-5.67,0s-3.73-.43-5.6-.61a13.64,13.64,0,0,0-3.06-.08c-5.51.79-11,1.66-16.51,2.51-3-2.31-5.46,1-8.22.88s-5.55-.63-8.31-.55c-5,.14-10,.59-15,.92a41,41,0,0,1-6.13.4c-5.33-.45-10,1.84-14.92,3.16a40.7,40.7,0,0,1-4.24,1.21c-11.13,1.67-21.7,5.32-32.25,9-4.67,1.65-9.19,3.74-14,5.73l1.86,1.54c-1.18,3.73-5.36.95-6.88,4.14-.78-1.53-1.2-2.37-1.84-3.64-3.64,3.4-8.87,3.82-11.54,8.22a5.31,5.31,0,0,1-2.57,1.63c-5,2-10.13,3.68-15,5.85-3.94,1.74-7.56,4.19-11.46,6-3.7,1.72-7.59,3-11.39,4.54a14.74,14.74,0,0,0-2.78,1.22c-2.08,1.38-4.18,2-6.61.89-.61-.27-1.79-.45-2.06-.12-2.32,2.77-5.57.85-8.2,1.77s-5.14,2.45-7.84,2.95c-5.06.95-10.23,1.3-15.34,2q-7.23,1-14.44,2.13c-3.19.51-6.39,1.09-9.54,1.8-5.3,1.21-10.54,2.7-15.86,3.78a153.52,153.52,0,0,1-17,2.76,36.1,36.1,0,0,0-11.44,3.13c-2.22,1-3.47,2.93-4.58,5.45-2,4.49-.4,8.8-.85,13.14a3.58,3.58,0,0,0,.79,2.49,13.92,13.92,0,0,1,3.23,8.11c.41,3.63,2.87,5.34,5.37,7.39,1.49,1.23,2.19,3.43,3.41,5.45l2.46-1.25a28,28,0,0,0,1.06,2.83,3.06,3.06,0,0,0,1.24,1.52,62.88,62.88,0,0,0,7.22,2.61c2.86.79,2.9.66,2.54,3.95l-6.87,1.47,5.61,4.78a19.55,19.55,0,0,1-1.95,1.52c-1.13.68-3.06.46-2.86,2.62,0,.1-.15.29-.27.33-3,1-6,2.49-9,2.81-2.25.24-4.67-1-7.82-1.86a11.18,11.18,0,0,1-1.48,1.23,2.28,2.28,0,0,1-3.16-.21c-2.55-2.21-5.08-4.06-9.06-3-1.79.46-4.15-1.09-6.18-1.91a35.12,35.12,0,0,1-5.94-2.9c-3.06-2-6.33-2.22-10-1.76a5.08,5.08,0,0,1-.27-1.87c.94-3.62-1.22-6.17-3-8.78-1.26-1.81-2.93-3.32-4.26-5.09a24.88,24.88,0,0,1-5-12.49c-.28-2.61-1.36-5.13-1.72-7.74a33.16,33.16,0,0,1-.19-7.45c.19-2,1.57-3.45,2.8-5.12a66.74,66.74,0,0,0,7.12-13.12c1.72-4,3.43-7.44,8.45-7.43a13.15,13.15,0,0,0,1.55-.19c-.62,2.38.56,3.87,1.92,5.55,3.09,3.84,6.3,7.24,11.12,9.05,2.29.87,4.11,3,6.54,4.83,1.1-1.71,2.63-3.39,3.37-5.38a16.2,16.2,0,0,1,5.21-7.5,4.86,4.86,0,0,0,1.46-1.64c2.22-4.82,6.59-7,11-9a216.13,216.13,0,0,1,39.19-13.67,27.17,27.17,0,0,0,3-1.17c-1.46-1.6-2.77-2.86-4.75-1.92-1.78.85-3.09.15-4.51-.76-3-1.9-6.05-3.67-9-5.62a14.47,14.47,0,0,1-4-3.38,101.63,101.63,0,0,0-13.31-15.23,13.35,13.35,0,0,1-3.77-8.22,43.49,43.49,0,0,0-1.31-6.4,145.87,145.87,0,0,1-5.71-30.64c-.69-8.2-1.65-16.43-1.6-24.64,0-4.2.35-8.51.67-12.72.66-8.45,1.13-17,4.11-25.23,2.29-6.31.31-12.77-1.12-19.11-.59-2.59-2.54-3.28-4.48-3.92-.1-5.16.43-5.66,4.94-5.72,6-.09,11.09,2.34,16.14,5.09,1,.56,2,1.14,3.08,1.69,3.11,1.64,5.14,1.58,7.58-.87a79.36,79.36,0,0,0,7.92-8.89c4.45-6,8.57-12.31,12.89-18.45.75-1.07,1.85-1.89,2.65-2.92,1.16-1.5,2.26-3,3.26-4.64,3-4.7,5.76-9.49,8.8-14.14,1.12-1.71,6.91-2.22,9.54-.76a37.91,37.91,0,0,1,5.46,4.24c.56.47.9,1.22,1.49,1.62,5.24,3.63,5.23,9.76,7.05,15,.74,2.12.66,4.55.85,6.85a3.86,3.86,0,0,1-.43,2.12c-3.52,6.17-5,13.15-7.78,19.59a18.64,18.64,0,0,1-4,6.27c-3.84,3.55-7.58,7.49-13.39,8.3-2-2.88-4.85-2.93-8.06-1.86-3.5,1.16-7.07,2.1-10.58,3.23-1.33.43-2.58.87-3.6-.46s-.46-2.69.49-4,1.67-2.7,2.48-4c-4-2.77-8.89-2.05-13,1.83a155.85,155.85,0,0,1,14.48,32.51,9.72,9.72,0,0,0,1.27-2.8c.24-2.39,1.82-3.33,3.79-3.72,4.47-.87,8.93-2,13.54-.34a13.42,13.42,0,0,0,5.26.49c5-.33,9.79,1.05,14.16,2.81,4.07,1.63,7.4,5.11,11,7.81.33.24.42.95.74,1,3.31,1,2,2.79,1.41,5.12-1,3.9-1.84,8.06.72,12.31a10.82,10.82,0,0,0,1.66-1.91c4.43-9.07,6.76-18.72,8-28.7.73-5.68,1.82-11.33,3-17a7,7,0,0,0-1.62-6.21l1.49-2.79a5.4,5.4,0,0,0-.6-1.07c-2.7-3.09-3-4.58-1.09-7.63,3.7-5.74,10.1-10.27,18-8.58,3.14.68,6.41.7,9.6,1.21a45,45,0,0,1,8.6,1.87c2.17.81,3.27.2,4.5-1.36q8.09-10.17,16.25-20.28c4.25-5.25,8.56-10.45,12.9-15.74,3.73,1.15,7.38,1.91,9.73,5,2.92,3.89,6.34,7.7,6.69,12.76.3,4.41-.37,8.86-4.72,11.57a10.45,10.45,0,0,0-4.67,6.63c-1.64,6-4.65,11.13-10.45,14.17a6.26,6.26,0,0,0-1.88,1.82c-1.22,1.63-2.35,3.33-3.61,5.14,1.31,5.48,6.36,8.24,10.29,12.36l-3.19,2.14a3.37,3.37,0,0,0-.22.87c.09,2.82,0,5.66.36,8.45s-2.53,2.06-2.95,2.86c.9,2.5,1.93,4.43,2.25,6.47.36,2.32-.59,3-2.72,2.1a80.47,80.47,0,0,1-10.12-5.09c-3.74-2.31-7.19-5.08-10.81-7.59A17.18,17.18,0,0,0,1204,220c-.87.92-1.68,1.73-2.44,2.6-.39.43-.64,1.36-1,1.38-4.57.24-4.85,4.39-6.15,7.19a91.69,91.69,0,0,0-4.56,13.22c-.67,2.34-1.24,4.45-3.78,5.44-.54.21-.82,1.07-1.45,2,3.5.75,6.65,1.26,9.67,2.18,1.06.32,1.82,1.63,3.12,2.88,1.14-1.24,2.4-2.41,3.41-3.75a34.86,34.86,0,0,0,2.23-3.79c1.68-3,3.16-5.75,7.53-5.52,2.12.11,4.34-1.61,6.52-2.5l9.37,4.93c1-1.7,2.26-3.73,3.91-6.46.9,3,2.8,4.94,1.3,7.78-1.64,3.11-3,6.39-4.5,9.54-.94,1.9-1.92,3.66,1.42,4.35-.92,2-1.75,3.71-2.51,5.45a37.13,37.13,0,0,0-2.3,5.7c-.37,1.51-.67,4.22,0,4.62,4.48,2.58,4.77,8.59,9.5,10.95C1236.31,289.69,1237.45,293.08,1240.11,296.17ZM1106,274.94a22.11,22.11,0,0,0,0,2.62c.94,4.9,1.85,9.81,2.87,14.7,1.23,5.87,2.4,11.74,4.7,17.37,1.13,2.77,1.21,6,1.41,9.1.25,4.11.16,8.23.21,12.35,0,1.31,0,2.61,0,3.87a20.27,20.27,0,0,1-2.22,1.18c-1.58.59-2.7,1.58-2,3.3.64,1.57,2.11,1.1,3.47.9,11-1.61,21.53-5.06,31.83-9,10.72-4.08,21.14-9,31.67-13.54,2.77-1.2,5.49-2.51,8.42-3.86-1.1-2.19-2.28-3.79-2.73-5.57a96.93,96.93,0,0,1-2.52-12.49c-.42-3.59-.83-7.26,1.35-10.71s3.71-6.9,5.63-10.55a14.78,14.78,0,0,0-2.22-1.23c-4-1.27-8-2.71-12.15-3.64-3.37-.77-5.7-2.19-6.26-5.8a5.72,5.72,0,0,0-.59-1.26c-3.13.84-2.35,4.11-3.83,5.92s-2.36,4-3.78,6.47l3-.25c-.76,8.81-6.83,14.92-11.39,21.8-.74,1.11-2.33,1.78-3.65,2.35-1.48.65-3.21.74-4.64,1.46-6.84,3.4-11.85.7-16.14-4.63a6.64,6.64,0,0,0-.79-1.06c-2-1.53-3.77-3.39-6-4.44-5.13-2.49-8.88-5.94-10.47-11.6C1108.83,277.53,1107.46,276.63,1106,274.94Zm20.6-30.75c.08-3.86-2.65-5.11-5.19-6.65-4.41-2.69-8.58-1.37-9.89,3.63-.91,3.47-2.35,6.87-1.71,10.7.26,1.6-.6,3.39-1,5.09q-1.36,6.39-2.75,12.79c2-1.58,3.27-3.81,6.07-3.25a4.65,4.65,0,0,0,5-1.92,2.56,2.56,0,0,1,1.44-.9c2.72-.53,5.46-1,8.2-1.42a2.55,2.55,0,0,1,1.66.16c3.32,2.42,7.27,1.57,10.93,2.17a2.56,2.56,0,0,0,1.7-.26c3.8-2.93,7.24-6.18,9.75-11.62l-12,1.49C1136,249.61,1132.8,245.38,1126.58,244.19Zm50.36,7c-.13-2.7-.38-5-.3-7.27.11-2.94.49-5.87.74-8.8.41-4.69.4-9.46,1.34-14s2.85-9.17,4.33-13.75a28.64,28.64,0,0,0,1.12-3.78,5.18,5.18,0,0,0-.11-3c-2.7-5.26-10.48-7.4-14.34-2.84a12.24,12.24,0,0,0-3.31,7.9c0,1.83-.33,4.17.63,5.4,1.48,1.9,1.49,3.74,1.35,5.76-.27,3.8-1.06,7.62-.89,11.4a68.47,68.47,0,0,1-1.65,18.14,14.86,14.86,0,0,0,1.06,9.16C1171.1,255.76,1172.25,250,1176.94,251.23Zm49.78,49.8c-4.27-2.17-8.34-4.26-12.43-6.3-2.36-1.18-3.71-.58-5.09,1.57s-2.92,4.79-5,6.45-2.38,3.31-2,6.08ZM1101.9,245.69c.61-.15.85-.15.88-.22.37-1.09.74-2.19,1.06-3.3.81-2.86.8-2.86-3.09-5.07Zm226,31.68,1.13.39c.2-.79.41-1.58.61-2.36l-.73-.26Z"/><path class="cls-1" d="M1430.16,470.22l3.6,1.79c0,.33,0,.67-.08,1-4.94.86-8.34,4.76-13.53,5.67-3.92.69-7.43,3.75-11.11,5.77-.38.21-.68.62-1.08.75-7,2.31-12.43,7.48-19.23,10.35-4.56,1.92-8.13,6.19-12.25,9.5l1.7,1.57c-3.28,6.74-9.12,11.13-14.42,16.08a82.78,82.78,0,0,1-9.8,7.43c-4.61,3.18-9.87,4.61-14.92,6.5a143.09,143.09,0,0,1-19.85,5.89c-9.31,2-18.44,5-28.19,5-5.92,0-11.84,1.22-17.76,1.87-3.46.38-6.93.72-10.58,1.1a57.21,57.21,0,0,1,0,6.72c-.67,5.21-1.52,10.39-2.35,15.58-.36,2.32-.79,4.64-1.29,6.93-.64,3-1.29,6-2.12,8.92q-3.48,12.25-7.15,24.46a53.86,53.86,0,0,1-2.38,6.1c-1.79,4.1-3.65,8.17-5.46,12.26-.52,1.19-.7,2.61-1.47,3.6-2.34,3-4.89,5.78-5.56,9.82-.21,1.27-1.63,2.39-2.58,3.5-2.37,2.77-4.32,6.32-7.31,8-4.93,2.86-7.49,7.64-11.16,11.47s-6.67,8.23-10,12.38c-2.35,3-4.21,6.72-7.24,8.6-2.64,1.64-4.26,4.7-7.92,5.25-2.07.31-4.35,2.44-5.57,4.36-1.68,2.64-4,4.34-6.23,6.35s-4.9,3.42-7,5.81-5.18,3.66-7.3,6.17-4.29,4.84-6.56,7.14a12.08,12.08,0,0,1-2.8,1.65l.11.11c.23-.94.19-2.09.72-2.8,4.42-5.87,9-11.64,13.4-17.49,1.2-1.57,2.17-3.32,3.7-5.7-8.13,3.8-11.81,10.54-16.08,16.62-3.37,4.8-6.26,9.94-9.42,14.89a39,39,0,0,1-2.77,3.35c-.83-4.57,1.56-7.61,3.39-10.61,5.11-8.38,10.91-16.36,15.77-24.87,5.79-10.12,12.14-19.92,16.66-30.78,4-9.74,8.67-19.26,13.49-28.64a178.67,178.67,0,0,1,10.65-17.58,79.74,79.74,0,0,0,10.62-21.56c2.08-7,4.61-13.95,6.2-21.09,1.36-6.15,1.71-12.54,2.44-18.84.43-3.8.72-7.62,1.14-12.1a42.61,42.61,0,0,0-6-1.85c-10.63-1.7-21.24-3.7-31.94-4.76-13.77-1.37-27.31-.25-40.37,5.21-6.2,2.59-12.73,4.55-19.76,3.92-4.39-.39-8.86,0-13.29-.07a38.32,38.32,0,0,1-13.43-2.21c-2.33-.89-4.8-1.43-7.21-2.15a18.47,18.47,0,0,1-3.35-1.08c-4.77-2.49-9.48-5.06-14.88-8,1.75-.75,3.08-1.69,4.51-1.87,6.77-.86,12.67-4,18.29-7.41a182.83,182.83,0,0,1,21.52-11.07A165.3,165.3,0,0,1,1164,504.53c14.32-1.82,28.79-3,43.31-1.58a70.47,70.47,0,0,0,15.06.12c-.93-5.54-1.84-10.71-2.65-15.9-1.14-7.32-3.38-14.14-7.91-20.18-1.86-2.48-3.06-5.45-4.59-8.23.84-.36,1.22-.64,1.34-.56,9.56,6.62,19.18,13.16,28.63,19.94a22,22,0,0,1,9.19,15.45,7.13,7.13,0,0,0,.31,1.29c1.94,5.9,2.41,6.26,8.56,5,5.9-1.25,11.74-2.76,17.62-4.11,1.71-.4,3.47-.62,5.18-.92l-2,1,.73,1.18,5.19-.82a2.85,2.85,0,0,0-2-.83c-.7-.11-1.39-.32-2.08-.49,6-2.23,12.29-2.59,18.55-3.18a13.7,13.7,0,0,1,2.55.42c1.15.11,2.64.62,3.41.11,5.3-3.56,11.59-2.49,17.34-3.89,11-2.68,22.12-4.84,33.24-7,4.55-.89,8.84-3.36,13.72-2.44a1.54,1.54,0,0,0,.84-.21c9.47-4.29,19.65-6,29.75-7.74,6.77-1.16,13.76-1.14,20.65-1.56,1.56-.09,2.75.41,1,3.14,4.15-1.32,8-.22,11.35-2.41Z"/><path class="cls-1" d="M1243.61,433.61a20.52,20.52,0,0,1,2.87-3.56,3.11,3.11,0,0,0,1-4.23c-3.37-.53-6.21.11-8.64,2.76-1,1.11-2.73,1.58-4.14,2.34,1.44,2.78.24,5.08-3.06,5.62a15.81,15.81,0,0,0-2.62.27,10.1,10.1,0,0,0-2.13,1.52c-1.85-.32-2.58-3.14-5-2.05-2.56,1.17-5.15,2.14-6.59,4.88-1.87,3.57-3.94,7-6.09,10.84l-3.09-2.46,6.3-14.9c.22-.53.76-1.25.59-1.55-1.74-3,.85-5.44,1-8.21.28-6.34,1-12.66,1.55-19-7.84,2.21-15.34,4.12-22.71,6.45-6.91,2.17-13.64,2.2-20.25-.75-4.16-1.86-8.26-3.91-12.25-6.13a36.55,36.55,0,0,1-5-3.95c-.16-2.46-.4-4.73-.42-7,0-3.36.18-3.59,3.44-4.68,5.66-1.9,11.51-3.35,17-5.74,4.93-2.16,9.45-5.29,14.12-8,7.72-4.54,15.29-9.36,23.18-13.56,3.57-1.9,7.76-2.62,11.68-3.86,3.07-1,6.33-1.57,9.18-3,5.44-2.69,10.79-2.18,16.29-.57,2.38.7,4.8,1.27,7.23,1.79,3.16.68,6.22,1.38,9,3.4,2.57,1.89,5.62,3.1,8.34,4.79,1.15.72,2.59,1.78,2.86,2.92,1.46,6.13,2.72,12.24-.83,18.31a10.5,10.5,0,0,0-1.27,8.52c.62,2,.07,3.7-1.35,5.59-2.79,3.71-4.91,7.93-7.38,11.9-.61,1-1.55,1.78-2.2,2.75a61.55,61.55,0,0,0-3.88,6.32,6.47,6.47,0,0,1-3.68,3.21c-2.51,1.16-4.55,3.55-6.48,5.69-1.67,1.86-3.27,3.55-5.67,4.2Z"/><path class="cls-1" d="M807.14,352.16,802,351l-2.3,3.47-3-1.62c-.58,2.2-1.12,4.21-1.61,6.07-2.64.67-4-.85-5.39-2.08-3.54-3.08-7.14-6.1-10.53-9.34A22,22,0,0,1,771.92,331c0-3.5-.65-7-.76-10.51a38.42,38.42,0,0,1,2-14.69c.7-1.91,2-2.49,4.21-2.19a16.68,16.68,0,0,1,11,5.64c2.76,3.18,4.38,3.39,8.17,1.19,6.87-4,13.53-8.36,20.37-12.42,5.19-3.09,10.44-6,15.13-9.9,2.22-1.86,5.58-2.35,8.44-3.44.4-.16,1,0,1.27-.29,3.23-3.24,7.34-2.2,11.21-2.42a29.69,29.69,0,0,1,11.35,1.24,32.35,32.35,0,0,0,4.33.74c3,.55,3.71,1.5,3.35,4.52-.58,4.79-1.4,9.55-1.75,14.35a15.27,15.27,0,0,0,.87,7.33c1.54,3.27,1.26,6.2.17,9.34-.77,2.23-1.66,4.43-2.23,6.71a10.8,10.8,0,0,1-7.49,8c-4.31,1.5-8.62,3-12.89,4.57A52.87,52.87,0,0,0,828.53,352a42.84,42.84,0,0,1-4.65,4.05C816.54,361.9,810.92,360.61,807.14,352.16Zm23.64-41.11c-1.38.71-2.76,1.41-4.14,2.13-5.56,2.88-10.68,6.73-17.31,7.13a3.54,3.54,0,0,0-3.59,3.73,8,8,0,0,1,4.39,4.53,2.86,2.86,0,0,0,2.65.8,128.46,128.46,0,0,0,12.48-7.18C828.81,319.77,829.65,315.47,830.78,311.05Z"/><path class="cls-1" d="M610.89,301.23c-2-1.9-3.81-2.32-3.9-4.81-.08-2-3.65-4-5.86-3.31-1.72.52-3.09.64-4.57-.38a1.88,1.88,0,0,0-1.28-.24c-5.14.82-8.45-1.85-11.81-5.34-4.06-4.23-8.87-7.72-13.13-11.77-6.23-5.91-11.2-12.87-15.83-20.06-4-6.19-7.78-12.5-11.91-18.59-1.71-2.54-4.11-4.6-6.14-6.93-2.28-2.63-4.48-5.34-6.73-8-.46-.55-.91-1.26-1.51-1.5-4.26-1.65-8.46-3.66-12.88-4.65a20,20,0,0,1-11.73-7.08,10.25,10.25,0,0,1-2-5.12c-.1-.87,1.23-2.27,2.24-2.82,6.91-3.76,13.88-1.91,20.75.2,2.65.81,5.09,2.47,7.76,3,4.33.79,7.65,4.27,12.39,4.12,1.52,0,3.16,1.86,4.65,3q4.33,3.32,8.55,6.79c1,.83,1.81,1.93,2.85,2.74,3.45,2.68,7.2,5,10.43,8,6.14,5.59,13.56,9.72,18.5,16.74,1.79,2.54,4.78,4.21,7,6.5,4.88,5,9.62,10.25,14.41,15.39a2.08,2.08,0,0,1,.5.72c1.88,5.55,3.5,11.08,1.36,17a6.64,6.64,0,0,0,.12,4.22c.9,2.45,1.58,4.56-.43,6.92C611.71,297,611.63,298.85,610.89,301.23Z"/><path class="cls-1" d="M504.45,345.43c3.79.3,7.6.4,11.35.93,5.39.76,10.79,1.61,16.09,2.81,13.43,3,26.92,6.06,39.22,12.52,8.46,4.44,15.18,11.06,21,18.58a7.13,7.13,0,0,1,1.24,2.34c1.81,6.18,3.55,12.37,5.34,18.68a10.43,10.43,0,0,1-2.6,1.83c-3.33,1-4.15,3.69-4.08,6.54a9.19,9.19,0,0,1-1,5,4.71,4.71,0,0,0-.37,2.93c1.16,6.2,2.36,12.4,3.69,18.56.69,3.17.64,6.5,2.49,9.45.54.86-.22,2.54-.38,3.84l-1.19.29c-.84-1.39-2.16-2.69-2.43-4.18-.79-4.5-3.32-7.69-6.63-10.58a51.26,51.26,0,0,1-7.34-7.39c-2.91-3.86-5.36-8.07-7.88-12.2a36.05,36.05,0,0,1-2.94-5.94c-3.71-9.8-11.1-16.53-19-22.71-8.47-6.6-17.3-12.75-25.74-19.39a40.37,40.37,0,0,1-9.76-10.67c-2.39-3.9-4.91-8-9.3-10.22C504.29,346.14,504.37,345.78,504.45,345.43Z"/><path class="cls-1" d="M685.2,372l3.41,2.15a10,10,0,0,1-7,6.14c-2.66.72-5.3,1.53-8,2.28a8.42,8.42,0,0,1-1.73.27,9.5,9.5,0,0,0-2.2,0c-5.69,1.75-11.14.89-16.76-.71-3.44-1-7.43,0-10.88-.95a129.37,129.37,0,0,1-16.9-6.16c-2.87-1.24-2.79-4-.28-5.9a11.82,11.82,0,0,1,1.15-.66c4-2.4,7.39-5,6.29-10.68-.41-2.16.77-4.53-.23-6.91-.31-.72.47-2.24,1.18-3a57.76,57.76,0,0,1,5-4.14l2.91,3c1.94,2,3.6,4.42,5.87,5.89,5.08,3.26,10.38,2.71,15.91.47a30.39,30.39,0,0,0,11.9-8.61c-1.37,3.3-2.73,6.6-4.11,9.92,2.19,3,5.64,1.29,8.26,2.56,2.41,1.17,5.25,1.44,7.67,2.05C688,363.89,690.93,368.37,685.2,372Z"/><path class="cls-1" d="M709.3,362.56c-2.15-2.72-5-2.19-7.73-2-.83.07-2.3.24-2.41,0-.88-2.35-2.76-2-4.66-2.28-3.34-.44-3.12-3.7-4.3-5.92-1.26-2.38-.67-5.69-3.67-7.26a2.43,2.43,0,0,1-.59-2.32c1.68-2.61-.18-4.73-.62-7.21-1-.25-2-.84-2.92-.68-2.31.42-2.74-1.23-3.37-2.67s.29-2.46,1.45-3.27a8.29,8.29,0,0,0,2.42-1.86c2.61-4,6.33-3.78,10.17-2.71s7.77,1.77,11.75.47a2,2,0,0,1,1.28-.17c3.54,1.44,7.06,2.95,10.58,4.46.4.17.73.61,1.12.66,7.52.89,8.81,6.83,10.39,12.62a14.28,14.28,0,0,0,1.4,3c-.61,2.6-1.14,4.47-1.47,6.36a4.4,4.4,0,0,1-4,3.79c-1.28.23-2.91.34-3.68,1.16C717.43,359.92,713.36,360.83,709.3,362.56Z"/><path class="cls-1" d="M755.58,300c1.38,1.62.49,4.39,3.15,5.16.41.12.69,1.23.75,1.9.48,5-5.5,13.58-10.27,14.59-2.15.45-4.41.28-6.61.53a21.45,21.45,0,0,1-10.83-1.63c-2.09-.9-3.55-3.32-5.21-5.14a19.46,19.46,0,0,1-4.85-12.61,12,12,0,0,1,1.32-5.39c2.35-5.09,9.91-8.18,14.36-5.24a8.83,8.83,0,0,0,4.54,1.32c2.51,0,4.65,1,5.59,3,1.45,3,3.61,3.54,6.46,3.33A7,7,0,0,1,755.58,300Z"/><path class="cls-1" d="M902.16,279.3a50.17,50.17,0,0,1,17.32,14.87c4.35,5.92,8.83,11.56,11.61,19.23-3.6.49-6.72,1.22-9.85,1.25-3,0-5.52.54-7.65,2.87-2.6-.66-5.67-2.7-6.53,1.79l-4.31-.27c-2.32-4.37-1-9.31-1.5-14-.25-2.44-.93-4.85-1.12-7.29a41.18,41.18,0,0,1,0-7.85C900.53,286.55,901.37,283.3,902.16,279.3Z"/><path class="cls-1" d="M997.48,283.26c-2.33,1.59-5,3.22-7.4,5.11-1.48,1.15-2.6,2.75-4,4-1.14,1.07-2.42,2.79-3.65,2.79-2.21,0-3,1.27-3.61,2.64a27.94,27.94,0,0,1-4.53-2.87,19.79,19.79,0,0,1-3.34-4.45c-1.17-2-1.68-4.54-3.2-6.17-1.69-1.8-4.19-2.84-6.43-4.27-1.34-2.71-2.8-5.67-4.46-9.06,4.32-1.73,8.6-3,13.69-2.38,7.07.86,12.63,5.23,19.18,7.19a6.8,6.8,0,0,1,2.42,1.87C994,279.52,995.72,281.41,997.48,283.26Z"/><path class="cls-1" d="M931.44,271.13c7.45,1.53,14.52,2.46,19.91,8a30.63,30.63,0,0,0,5.87,4.63c3.54,2.2,4.94,5.86,7,9.48-.84.27-1.6.55-2.38.75-.55.13-1.49-.05-1.64.23-1.73,3.35-5.92,3.54-8,6.35-1.1,1.47-2.49,1.65-4.28,1.51s-3.55.42-5.95.76a13.78,13.78,0,0,1-1.28-3.32c-.79-5.18-3.29-9.66-5.42-14.33C933.34,281,931.35,276.73,931.44,271.13Z"/><path class="cls-1" d="M794,622.82c-2.28.44-4.54,1-6.83,1.26-.73.08-1.55-.67-2.61-1.17,3.13-3.29,6.3-.89,9.3-1Z"/><path class="cls-1" d="M762.82,612.77l6.11,3.38c-3.67,1.76-4.77-1.28-6.72-2.73Z"/><path class="cls-1" d="M809.22,625c-1.91-.23-3.49,1.34-5.17-.28C806.56,622.62,807.1,622.62,809.22,625Z"/><path class="cls-1" d="M810.57,624.4l3.89-2.2c.23,1.09.39,1.83.55,2.57l-4.22.54Z"/><path class="cls-1" d="M778.42,621.93l-4.77-1.87C776.09,618.37,776.45,618.46,778.42,621.93Z"/><path class="cls-1" d="M1140.87,748.38a5.83,5.83,0,0,1-2.62,4.5c-.55-2.76,1.19-3.51,2.73-4.39Z"/><path class="cls-1" d="M820.29,621.93c1,2.85,1,2.85-2,2.88Z"/><path class="cls-1" d="M832.93,619.22c.56-1.24.85-1.86,1.15-2.51l2.87,1Z"/><path class="cls-1" d="M1418,492.88h-2.64c1.19-1.17,1.19-1.17,2.5.11Z"/><path class="cls-1" d="M388.86,479.18l2.66-1.2c.12.3.25.6.38.9l-2.72,1.06Z"/><path class="cls-1" d="M835.83,562.87l2.39-.25c.06.29.11.58.17.87l-2.5.5Z"/><path class="cls-1" d="M641.59,703.65c-.27-.62-.5-1.11-.69-1.62-.44-1.15.27-2.26.14-3.41a7.37,7.37,0,0,1,0-1.15c0-.74.1-1.48.11-2.21s0-1.72,0-2.57c0-.42.13-.83.13-1.24,0-1.46,0-2.93-.09-4.39-.18-2.84.12-5.72-.76-8.5a3,3,0,0,1,1-3.17c.23.36.44.74.7,1.09a1.5,1.5,0,0,0,1.58.72,2,2,0,0,1,2.08,2c-.05,2-.25,3.92-.23,5.88,0,1.37.3,2.75.45,4.12a6.73,6.73,0,0,1,0,1.1c-.17,2.45-.35,4.91-.53,7.36a1.22,1.22,0,0,0,0,.33c.29,1.28.68,2.53.14,3.85a1.59,1.59,0,0,0,.09,1.09,3.87,3.87,0,0,1-.35,3.71,15.16,15.16,0,0,0-.73,1.91l-2-1.17a.63.63,0,0,0-.28.22,1.42,1.42,0,0,1-2.25.27,4,4,0,0,0-3.07-1.5c-.28,0-.77-.24-.8-.42-.25-1.54-1.65-2.06-2.58-3-.32-.31-.78-.38-.53-1,0-.14-.23-.51-.44-.65-2.15-1.41-3.54-3.51-5.09-5.48-.9-1.14-1.9-2.19-2.82-3.32-.21-.26-.22-.68-.4-1a8.07,8.07,0,0,0-.8-.86c-.22.3-.64.61-.63.91,0,1.64.21,3.27.34,4.91,0,.29.11.58.1.86,0,2-.09,4-.17,6a9.07,9.07,0,0,1-.27,1.95,3,3,0,0,0,.63,3c.14.17,0,.64-.09.92a15.38,15.38,0,0,1-.88,1.94,7.64,7.64,0,0,1-.79,1c-.41-.35-.66-.59-.93-.8-.57-.45-1.26-.69-1.13-1.74.09-.74-.49-1.55-.55-2.35a27.73,27.73,0,0,1,.12-3.15c0-.11.05-.24,0-.33-.65-1.5-.12-3-.12-4.55a22.44,22.44,0,0,1,.24-4,46.49,46.49,0,0,0,.3-6.15c.06-1.27.22-2.54.28-3.81a1.79,1.79,0,0,0-.21-1.14c-1.24-1.57-1.47-3.68-2.84-5.19-.39-.43.3-1.47,1.12-1.94a10.21,10.21,0,0,0,1.08-.91c.31-.25.65-.63,1-.62s.5.53.67.86c.35.71.67,1.43,1,2.17.39,1,.68,2,1.11,3a9.94,9.94,0,0,0,1,1.39c1.69,2.46,3.4,4.91,5,7.39,1.07,1.62,1.93,3.38,3.07,4.92a44.14,44.14,0,0,0,3.84,4.37c.92,1,2,1.78,3,2.67a1.3,1.3,0,0,1,.4.51C639.69,703.83,640.53,703.82,641.59,703.65Z"/><path class="cls-1" d="M928.51,677.6,927.2,677c1.27-1.58,1.26-1.58,2.83-1a4.59,4.59,0,0,0,.83.21,1.42,1.42,0,0,1,1.32,1.4c.05,1,.14,2.06.2,3.09,0,.29-.06.64.07.86.78,1.31.12,2.66.19,4,.06,1,0,2,.05,3,0,.79.86,1,1.72.43a19.47,19.47,0,0,0,2.32-2c1.89-1.84,3.79-3.67,5.63-5.56,1.26-1.31,2.42-2.73,3.62-4.1l.54-.6a15,15,0,0,1,1.43,2.45c.75,2.17-.35,3.81-1.79,5.27-2.47,2.52-5,5-7.46,7.52-1.13,1.16-1,1.54.39,2.39a47.92,47.92,0,0,1,4,3.11c.09.07.16.17.25.23,1.14.84,2.29,1.65,3.41,2.5.61.46,1.15,1,1.78,1.46s1.11.5,1.57.87a15.51,15.51,0,0,1,1.73,1.71c1,1.12,2,2.28,3,3.41a.8.8,0,0,0,.49.23c1,.09,1.3.69,1.17,1.61a1.14,1.14,0,0,0,0,.45c.09.44.37,1.2.26,1.26a5.92,5.92,0,0,1-2.13.76,5.37,5.37,0,0,1-2.16-.36,2.4,2.4,0,0,1-1-.93c-.41-.56-.66-1.25-1.1-1.77a1.33,1.33,0,0,0-1.12-.41c-.9.35-1.44-.06-1.44-.8,0-2.31-1.74-3.55-3-5-.93-1.12-2.12-2-3.16-3.05-.8-.79-1.52-1.66-2.34-2.43a11.74,11.74,0,0,0-2.06-1.6c-1.31-.75-3.64.51-3.7,2a35.82,35.82,0,0,0,.15,4.63,7.75,7.75,0,0,0,.72,2.59c.9,1.81-.13,3.48-.28,5.2-.05.49-.72,1-1.19,1.35a1,1,0,0,1-.87-.35c-.31-1.32-1-1.42-2-.6-.6-.89.16-2.52-1.6-2.59a2.34,2.34,0,0,0-.62-2.74,2.12,2.12,0,0,1-.41-1.45c0-1.37.12-2.74.19-4.1.05-1.1.14-2.2.1-3.29-.06-1.64-.33-3.29-.33-4.93,0-2,.13-3.91.27-5.86.15-2.16.37-4.31.58-6.47C928.32,678.45,928.43,678,928.51,677.6Z"/><path class="cls-1" d="M780.59,710.87a5,5,0,0,0-1-.28,31.54,31.54,0,0,1-3.38-.12c-.74-.12-1.39-.76-2.14-.93-1.44-.31-2-1.74-3.27-2.32-.59-.28-.86-1.16-1.42-1.59a4.25,4.25,0,0,1-1.5-3.08c-.24-1.51-1.15-2.91-1.58-4.41a6.06,6.06,0,0,1,.32-4.95c.48-.86.24-2.11.32-3.18.06-.75.06-1.5.17-2.25a5.1,5.1,0,0,1,.5-2.18,14.19,14.19,0,0,0,1.95-3.14c2.59-.61,3.18-3.11,4.59-4.83.46-.57.91-.71,1.51-.29,1.66,1.15,1.73,1.15,3.25-.22a2,2,0,0,1,.45-.31,2.07,2.07,0,0,1,.44-.14l.43,1.44a4.87,4.87,0,0,1,1.24-.08c.44.08,1.09.22,1.23.53a5.93,5.93,0,0,0,2.5,2.31,10.2,10.2,0,0,1,2.36,3c.12.18-.19.65-.07.93.11.51.46,1.16.27,1.51-.44.81-1.46.78-2.3.45-1.79-.71-3.12-2-4.63-3.11s-2.31-.78-4.08,0a13.75,13.75,0,0,0-4.23,3.29,8.19,8.19,0,0,0-2.66,7.53,5.61,5.61,0,0,1,0,1.53c-.07.75-.23,1.49-.34,2.23,0,.11,0,.29.06.32,1.25.63,1.2,2.15,2.08,3.05a13,13,0,0,1,1.06,1.6,8.53,8.53,0,0,0,1.9,2.41c1.67,1.06,3.33,2.22,5.59,2a3.51,3.51,0,0,0,2.12-.5c.63-.45,1.78-.26,2.69-.19,1.15.07,1.72-.7,2.36-1.4s1-1.19,1.43-1.79.7-.55,1,.1a2,2,0,0,0,.12.31c1.27,2.2,1.27,2.19-.61,3.92a6,6,0,0,1-3.77,1.42A27.09,27.09,0,0,0,780.59,710.87Z"/><path class="cls-1" d="M1069.4,679.16c1.49-1.13,2.61-.79,3.1,1a24.68,24.68,0,0,1,1,4.29c.21,2.53.18,5.09.25,7.64a2.4,2.4,0,0,0,0,.47c.75,2.31,1.54,4.61,2.25,6.94a9.86,9.86,0,0,0,4.21,5.24,31.59,31.59,0,0,0,3,1.48c2.31,1.26,4-.06,5.58-1.65a19,19,0,0,0,3.16-4.63c.63-1.18,1.26-2.38,1.88-3.58.07-.14.22-.28.22-.42a8,8,0,0,1,1.8-4.18,2.93,2.93,0,0,0,.36-1.15c.2-1.4.33-2.81.56-4.2.27-1.62.62-3.23.92-4.85,0-.16.11-.39,0-.48-1.41-1.9,1-2.3,1.21-3.54,0-.11.32-.2.49-.21a4.6,4.6,0,0,1,2.47,1.91,29.23,29.23,0,0,1,1.19,2.77,14.81,14.81,0,0,1,.52,2.9c.09.94.05,1.9.06,2.85a2.07,2.07,0,0,0-1.8,2c.16,2-.66,3.65-1.41,5.35-.31.69-.55,1.42-.82,2.13-.64,1.67-1.17,3.4-2,5a11.63,11.63,0,0,1-2,2.24c-.6.65-1.18,1.32-1.78,2-.39.43-.8.84-1.19,1.27s-.52.6-.8.87-.47.55-.74.59c-1.72.24-3.44.46-5.17.61a8.56,8.56,0,0,1-3,0,11.52,11.52,0,0,1-3.46-1.79A28.27,28.27,0,0,1,1075,704a25.1,25.1,0,0,1-2.84-4.66c-.68-1.26-1.21-2.62-1.8-3.94a1.09,1.09,0,0,1-.12-.46c.19-3.56,0-7.13.66-10.68A5.31,5.31,0,0,0,1069.4,679.16Z"/></svg>